<svg width="14" height="14" viewBox="0 0 14 14" fill="none" xmlns="http://www.w3.org/2000/svg">
<path d="M11.8158 10.5V11.1562C11.8158 11.6788 11.6082 12.18 11.2387 12.5495C10.8691 12.919 10.368 13.1266 9.84538 13.1266C9.3228 13.1266 8.82162 12.919 8.4521 12.5495C8.08258 12.18 7.87499 11.6788 7.87499 11.1562V10.5C7.87499 10.384 7.92108 10.2727 8.00313 10.1906C8.08517 10.1086 8.19645 10.0625 8.31249 10.0625H11.375C11.4327 10.0621 11.49 10.0731 11.5434 10.0949C11.5969 10.1166 11.6455 10.1488 11.6865 10.1895C11.7274 10.2301 11.76 10.2785 11.7822 10.3318C11.8043 10.3851 11.8158 10.4423 11.8158 10.5ZM5.68749 8.75H2.62499C2.50895 8.75 2.39767 8.79609 2.31563 8.87814C2.23358 8.96019 2.18749 9.07147 2.18749 9.1875V9.84375C2.18749 10.3659 2.39491 10.8667 2.76412 11.2359C3.13333 11.6051 3.63409 11.8125 4.15624 11.8125C4.67838 11.8125 5.17914 11.6051 5.54835 11.2359C5.91756 10.8667 6.12499 10.3659 6.12499 9.84375V9.1875C6.12499 9.07147 6.07889 8.96019 5.99685 8.87814C5.9148 8.79609 5.80352 8.75 5.68749 8.75ZM4.15624 0.875C3.51967 0.875 2.90225 1.43883 2.41717 2.46094C1.65538 4.06766 1.40217 6.45312 2.43303 7.71094C2.47414 7.76111 2.52588 7.80151 2.58453 7.82923C2.64317 7.85694 2.70724 7.87127 2.7721 7.87117H5.53655C5.60141 7.87127 5.66548 7.85694 5.72412 7.82923C5.78276 7.80151 5.83451 7.76111 5.87561 7.71094C6.90647 6.45312 6.65327 4.06602 5.89147 2.46094C5.40585 1.43883 4.78897 0.875 4.15624 0.875ZM8.46561 9.1875H11.2301C11.2949 9.18759 11.359 9.17327 11.4176 9.14555C11.4763 9.11784 11.528 9.07744 11.5691 9.02727C12.6 7.76945 12.3468 5.38234 11.585 3.77727C11.0977 2.75133 10.4803 2.1875 9.84374 2.1875C9.20717 2.1875 8.59194 2.75133 8.10631 3.77344C7.34452 5.38016 7.09131 7.76562 8.12217 9.02344C8.16313 9.0746 8.21507 9.1159 8.27413 9.1443C8.3332 9.1727 8.39789 9.18746 8.46342 9.1875H8.46561Z" fill="#F9545E"/>
</svg>
