<svg width="30" height="43" viewBox="0 0 30 43" fill="none" xmlns="http://www.w3.org/2000/svg">
<path d="M23.9758 4.00236C23.9758 5.06385 23.6348 6.08186 23.0278 6.83245C22.4208 7.58304 21.5975 8.00471 20.7391 8.00471C19.8807 8.00471 19.0574 7.58304 18.4504 6.83245C17.8434 6.08186 17.5024 5.06385 17.5024 4.00236C17.5024 2.94087 17.8434 1.92285 18.4504 1.17226C19.0574 0.421676 19.8807 0 20.7391 0C21.5975 0 22.4208 0.421676 23.0278 1.17226C23.6348 1.92285 23.9758 2.94087 23.9758 4.00236ZM3.15384 42.4757C4.02321 41.5054 12.3183 27.4101 12.2157 27.0782C12.1444 26.8478 8.01426 24.3438 7.97859 24.4133L0.814133 38.2407C-1.60761 42.9134 2.03749 43.7216 3.15384 42.4757ZM13.7494 37.0455L21.4952 25.1718C22.1515 24.1641 20.9995 22.8212 20.1658 22.336C17.9705 21.057 11.753 18.1727 11.1939 18.1727C10.2586 18.1727 9.28487 19.4274 9.28487 20.6314C9.28487 22.153 9.89031 22.7616 12.9255 24.2942C14.4574 25.0671 15.7467 25.7827 15.711 25.8532L10.7864 35.7026C9.96966 37.3355 12.7284 38.6112 13.7494 37.0455ZM6.39234 19.0051C6.86313 18.4737 8.28265 16.8044 9.54524 15.2939C10.8381 13.748 11.9643 12.6058 12.1221 12.6807C12.2764 12.7535 14.4716 14.2718 17.0013 16.0546C21.7297 19.3877 22.8345 19.9048 23.8278 19.2466C24.0855 19.0768 25.4488 17.1517 26.8576 14.9686C29.0199 11.6201 29.4194 10.8582 29.4194 10.0842C29.4194 8.88678 28.7934 8.10725 27.8322 8.10725C27.2241 8.10725 26.7087 8.513 24.7792 10.5109C23.5023 11.8329 22.3387 12.9773 22.1934 13.0545C21.9143 13.2012 21.6869 13.0512 16.888 9.55053C13.399 7.00578 12.4708 6.60995 11.0031 7.04547C9.7628 7.41373 8.9719 8.37628 5.66564 13.5374C4.58584 15.3347 2.64292 17.2421 3.66119 19.5542C4.54215 20.5024 5.17433 20.3756 6.39234 19.0051Z" fill="#F9545E"/>
</svg>
