<svg width="32" height="32" viewBox="0 0 32 32" fill="none" xmlns="http://www.w3.org/2000/svg">
<path d="M20.3319 8.66675C21.1275 8.66675 21.8906 8.35068 22.4532 7.78807C23.0158 7.22546 23.3319 6.4624 23.3319 5.66675C23.3319 4.8711 23.0158 4.10804 22.4532 3.54543C21.8906 2.98282 21.1275 2.66675 20.3319 2.66675C19.5362 2.66675 18.7732 2.98282 18.2106 3.54543C17.648 4.10804 17.3319 4.8711 17.3319 5.66675C17.3319 6.4624 17.648 7.22546 18.2106 7.78807C18.7732 8.35068 19.5362 8.66675 20.3319 8.66675ZM14.3052 11.5214C13.4739 11.7281 12.9065 12.0387 12.4485 12.4241C11.7619 13.0027 11.2072 13.8374 10.4579 15.1494C10.2824 15.4564 9.99213 15.6812 9.65094 15.7742C9.30975 15.8672 8.94558 15.8209 8.63855 15.6454C8.33152 15.4699 8.10677 15.1797 8.01375 14.8385C7.92073 14.4973 7.96706 14.1331 8.14255 13.8261C8.88855 12.5214 9.64255 11.3007 10.7312 10.3847C11.8672 9.42741 13.2579 8.88608 15.1332 8.67741C15.9172 8.59075 16.7799 8.60808 17.5885 8.96875C18.4372 9.34808 19.0572 10.0274 19.4799 10.9354C20.0492 12.1574 20.4725 12.8847 20.8112 13.3067C20.9745 13.5087 21.0885 13.6027 21.1532 13.6447C21.2045 13.6781 21.2265 13.6807 21.2345 13.6821C21.2925 13.6887 21.4812 13.6821 22.0332 13.4374C22.2739 13.3307 22.5365 13.2027 22.8579 13.0461L22.9345 13.0087C23.3275 12.8148 23.724 12.6281 24.1239 12.4487C24.4467 12.307 24.8125 12.2989 25.1412 12.4262C25.47 12.5535 25.735 12.8058 25.8782 13.1279C26.0214 13.4501 26.0312 13.8158 25.9055 14.1452C25.7797 14.4745 25.5287 14.7407 25.2072 14.8854C24.8367 15.0517 24.4693 15.2249 24.1052 15.4047L24.0179 15.4474C23.7105 15.5974 23.4012 15.7487 23.1112 15.8767C22.5112 16.1421 21.7445 16.4301 20.9132 16.3294C20.0359 16.2227 19.3599 15.7274 18.8032 15.0627L16.9812 18.5781L19.5012 21.8567C19.6512 22.0527 19.7439 22.2861 19.7699 22.5314L20.3245 27.8621C20.3457 28.0377 20.3317 28.2158 20.2833 28.3859C20.2349 28.5561 20.1532 28.7149 20.0428 28.8532C19.9324 28.9914 19.7957 29.1063 19.6405 29.1912C19.4853 29.2761 19.3147 29.3292 19.1388 29.3475C18.9628 29.3658 18.785 29.349 18.6156 29.2979C18.4463 29.2468 18.2888 29.1625 18.1523 29.0499C18.0159 28.9374 17.9032 28.7988 17.8208 28.6422C17.7384 28.4857 17.688 28.3143 17.6725 28.1381L17.1565 23.1827L15.6259 21.1907L15.6125 21.2154L15.5565 21.1007L12.7285 17.4207C12.5895 17.2399 12.4992 17.0264 12.4663 16.8006C12.4334 16.5749 12.459 16.3445 12.5405 16.1314L14.3052 11.5214Z" fill="#55585B"/>
<path d="M12.287 19.3381L11.3057 21.9781L7.43904 21.6715C7.26324 21.6551 7.08595 21.6739 6.91746 21.7266C6.74897 21.7794 6.59262 21.8651 6.45751 21.9787C6.32239 22.0923 6.21119 22.2317 6.13036 22.3887C6.04953 22.5456 6.00068 22.7171 5.98664 22.8931C5.97261 23.0691 5.99366 23.2461 6.04859 23.4139C6.10352 23.5817 6.19122 23.7369 6.30662 23.8705C6.42201 24.0042 6.56279 24.1135 6.7208 24.1923C6.8788 24.2711 7.05088 24.3177 7.22704 24.3295L12.099 24.7161C12.3882 24.7391 12.6769 24.6672 12.9215 24.5113C13.1661 24.3554 13.3532 24.124 13.4544 23.8521L14.2044 21.8335L12.287 19.3381Z" fill="#55585B"/>
</svg>
