<svg width="32" height="32" viewBox="0 0 32 32" fill="none" xmlns="http://www.w3.org/2000/svg">
<path d="M19.3326 6.66659C19.3326 7.55064 18.9814 8.39849 18.3563 9.02361C17.7312 9.64873 16.8834 9.99992 15.9993 9.99992C15.1152 9.99992 14.2674 9.64873 13.6423 9.02361C13.0172 8.39849 12.666 7.55064 12.666 6.66659C12.666 5.78253 13.0172 4.93468 13.6423 4.30956C14.2674 3.68444 15.1152 3.33325 15.9993 3.33325C16.8834 3.33325 17.7312 3.68444 18.3563 4.30956C18.9814 4.93468 19.3326 5.78253 19.3326 6.66659ZM20.666 28.6666C20.666 28.8434 20.5957 29.013 20.4707 29.138C20.3457 29.263 20.1761 29.3333 19.9993 29.3333H8.56997C8.1561 29.3332 7.7535 29.1984 7.42313 28.9491C7.09277 28.6998 6.85263 28.3496 6.73908 27.9516C6.62553 27.5536 6.64475 27.1295 6.79383 26.7434C6.94292 26.3573 7.21374 26.0303 7.5653 25.8119L11.088 23.6239C11.3769 23.4445 11.6152 23.1943 11.7805 22.8971C11.9458 22.5998 12.0326 22.2654 12.0326 21.9253V21.3333H13.6153C14.3225 21.3331 15.0007 21.052 15.5006 20.5519L15.9993 20.0539L16.4973 20.5519C16.745 20.7997 17.0392 20.9963 17.3629 21.1303C17.6866 21.2644 18.0336 21.3334 18.384 21.3333H19.9993V21.9279C19.9994 22.267 20.0857 22.6005 20.2502 22.8971C20.4146 23.1936 20.6517 23.4435 20.9393 23.6233L24.4366 25.8093C24.788 26.0286 25.0583 26.3564 25.2068 26.743C25.3553 27.1296 25.3738 27.5541 25.2597 27.9522C25.1455 28.3503 24.9048 28.7005 24.5739 28.9496C24.2431 29.1988 23.8401 29.3335 23.426 29.3333H21.886C21.9593 29.1246 21.9993 28.8999 21.9993 28.6666V28.4999C21.9992 28.0155 21.8233 27.5476 21.5043 27.1831C21.1853 26.8185 20.7448 26.5822 20.2646 26.5179L11.4546 25.3393C11.2808 25.3186 11.1058 25.3672 10.9675 25.4744C10.8291 25.5817 10.7385 25.7391 10.7152 25.9126C10.692 26.0861 10.7379 26.2618 10.843 26.4017C10.9482 26.5417 11.1042 26.6347 11.2773 26.6606L20.088 27.8393C20.248 27.8607 20.3948 27.9395 20.5011 28.061C20.6074 28.1825 20.6659 28.3385 20.666 28.4999V28.6666ZM17.4406 19.6093L16.666 18.8346V16.3399C16.7646 16.3973 16.858 16.4679 16.942 16.5519L18.1946 17.8053C18.3197 17.93 18.4893 18.0001 18.666 17.9999H20.666C20.7796 17.9999 20.8913 17.9708 20.9905 17.9154C21.0897 17.8601 21.1731 17.7803 21.2328 17.6837C21.2925 17.587 21.3265 17.4767 21.3316 17.3632C21.3367 17.2498 21.3127 17.1369 21.262 17.0353L20.5953 15.7019C20.5579 15.6209 20.5045 15.5482 20.4384 15.4881C20.3724 15.4281 20.2949 15.3819 20.2107 15.3524C20.1264 15.3228 20.0371 15.3105 19.948 15.3162C19.8589 15.3218 19.7718 15.3453 19.6919 15.3852C19.6121 15.4251 19.5411 15.4807 19.4831 15.5486C19.4251 15.6165 19.3814 15.6953 19.3545 15.7805C19.3275 15.8656 19.318 15.9553 19.3264 16.0442C19.3348 16.133 19.3609 16.2193 19.4033 16.2979L19.5873 16.6666H18.942L17.8846 15.6093C17.3846 15.1093 16.7064 14.8285 15.9993 14.8285C15.2922 14.8285 14.614 15.1093 14.114 15.6093L13.0566 16.6666H12.4113L12.5953 16.2979C12.6377 16.2193 12.6638 16.133 12.6722 16.0442C12.6806 15.9553 12.6711 15.8656 12.6442 15.7805C12.6172 15.6953 12.5735 15.6165 12.5155 15.5486C12.4575 15.4807 12.3865 15.4251 12.3067 15.3852C12.2268 15.3453 12.1397 15.3218 12.0506 15.3162C11.9615 15.3105 11.8722 15.3228 11.7879 15.3524C11.7037 15.3819 11.6262 15.4281 11.5602 15.4881C11.4941 15.5482 11.4407 15.6209 11.4033 15.7019L10.7366 17.0353C10.6859 17.1369 10.6619 17.2498 10.667 17.3632C10.6721 17.4767 10.7061 17.587 10.7658 17.6837C10.8255 17.7803 10.909 17.8601 11.0082 17.9154C11.1073 17.9708 11.219 17.9999 11.3326 17.9999H13.3326C13.5094 17.9999 13.679 17.9296 13.804 17.8046L15.0566 16.5519C15.1413 16.4679 15.234 16.3973 15.3326 16.3399V18.8346L14.558 19.6093C14.308 19.8593 13.9689 19.9998 13.6153 19.9999H9.58997C9.37315 19.9999 9.15961 19.9471 8.96784 19.8459C8.77607 19.7447 8.61186 19.5983 8.48945 19.4194C8.36704 19.2404 8.29011 19.0343 8.26534 18.8189C8.24057 18.6035 8.26871 18.3853 8.3473 18.1833L10.35 13.0333C10.5447 12.5325 10.8862 12.1022 11.3297 11.7989C11.7732 11.4955 12.298 11.3332 12.8353 11.3333H19.1633C19.7006 11.3332 20.2254 11.4955 20.6689 11.7989C21.1124 12.1022 21.4539 12.5325 21.6486 13.0333L23.652 18.1833C23.7306 18.3854 23.7587 18.6037 23.7339 18.8192C23.7091 19.0347 23.632 19.2409 23.5094 19.4199C23.3869 19.5989 23.2225 19.7453 23.0306 19.8464C22.8386 19.9474 22.6249 20.0001 22.408 19.9999H18.3826C18.029 19.9998 17.69 19.8593 17.44 19.6093" fill="#888A8C" fill-opacity="0.5"/>
</svg>
