<svg width="32" height="32" viewBox="0 0 32 32" fill="none" xmlns="http://www.w3.org/2000/svg">
<g clip-path="url(#clip0_62_1702)">
<path d="M11.4952 28.7193C11.6103 28.8441 11.6716 29.0093 11.6656 29.179C11.6596 29.3487 11.5869 29.5091 11.4632 29.6255L10.0731 30.9254C9.94902 31.0407 9.78419 31.102 9.61487 31.0959C9.44555 31.0898 9.28559 31.0167 9.17011 30.8927L1.07475 22.1682C0.959707 22.0433 0.898603 21.8781 0.904715 21.7084C0.910827 21.5387 0.98366 21.3783 1.10739 21.262L2.49939 19.9641C2.56081 19.9069 2.6329 19.8624 2.71153 19.8331C2.79017 19.8038 2.87381 19.7902 2.95767 19.7933C3.04153 19.7963 3.12398 19.8158 3.20029 19.8507C3.27661 19.8857 3.34529 19.9353 3.40243 19.9967L11.4952 28.7193ZM21.8248 12.3033C21.9399 12.4282 22.001 12.5934 21.9949 12.7631C21.9887 12.9328 21.9159 13.0932 21.7922 13.2095L13.0434 21.3823C12.9193 21.4976 12.7544 21.559 12.5851 21.5529C12.4158 21.5467 12.2558 21.4737 12.1403 21.3497L10.052 19.0962C9.93699 18.9713 9.87588 18.8061 9.882 18.6364C9.88811 18.4667 9.96094 18.3063 10.0847 18.19L18.8315 10.0172C18.8929 9.96004 18.965 9.91554 19.0435 9.88624C19.1221 9.85694 19.2057 9.84342 19.2895 9.84645C19.3733 9.84948 19.4557 9.86901 19.532 9.90391C19.6082 9.93881 19.6769 9.9884 19.7339 10.0498L21.8248 12.3033ZM14.4719 25.9372C14.7112 26.1951 14.6965 26.6028 14.4392 26.8434L13.0472 28.1426C12.9858 28.1998 12.9137 28.2443 12.8351 28.2736C12.7564 28.303 12.6728 28.3165 12.5889 28.3134C12.5051 28.3104 12.4226 28.2909 12.3463 28.256C12.27 28.2211 12.2013 28.1715 12.1442 28.11L4.05331 19.3855C3.93819 19.2607 3.87697 19.0955 3.88296 18.9258C3.88895 18.7561 3.96167 18.5957 4.08531 18.4793L5.47475 17.1807C5.59887 17.0654 5.7637 17.0041 5.93302 17.0102C6.10234 17.0163 6.26231 17.0894 6.37779 17.2134L14.4719 25.9372ZM27.9522 12.6162C28.0671 12.7412 28.1281 12.9065 28.1219 13.0762C28.1157 13.2459 28.0427 13.4063 27.9189 13.5225L26.5275 14.8217C26.4034 14.9371 26.2385 14.9986 26.0691 14.9926C25.8997 14.9866 25.7395 14.9136 25.6239 14.7897L17.5317 6.06712C17.4164 5.94239 17.3551 5.77715 17.3611 5.60741C17.3671 5.43767 17.4399 5.27718 17.5637 5.16088L18.9589 3.85848C19.0203 3.80132 19.0923 3.75682 19.1709 3.72752C19.2495 3.69822 19.3331 3.6847 19.4169 3.68773C19.5007 3.69076 19.5831 3.71029 19.6593 3.74519C19.7356 3.78009 19.8042 3.82968 19.8613 3.89112L27.9522 12.6162ZM30.9243 9.83864C31.0393 9.96372 31.1003 10.129 31.0942 10.2988C31.0881 10.4685 31.0153 10.629 30.8917 10.7455L29.5029 12.0441C29.4416 12.1013 29.3696 12.1458 29.291 12.1752C29.2125 12.2045 29.1289 12.2181 29.0451 12.2151C28.9613 12.2122 28.8789 12.1927 28.8026 12.1579C28.7263 12.123 28.6576 12.0735 28.6005 12.0121L20.5096 3.28568C20.3946 3.16069 20.3335 2.99542 20.3395 2.82567C20.3455 2.65593 20.4181 2.49538 20.5416 2.3788L21.9317 1.07768C21.9929 1.02042 22.0649 0.975817 22.1434 0.946425C22.2219 0.917033 22.3055 0.903433 22.3892 0.906406C22.473 0.90938 22.5554 0.928867 22.6316 0.96375C22.7079 0.998633 22.7764 1.04823 22.8335 1.10968L30.9243 9.83864Z" fill="#888A8C" fill-opacity="0.5"/>
</g>
<defs>
<clipPath id="clip0_62_1702">
<rect width="32" height="32" fill="white"/>
</clipPath>
</defs>
</svg>
