<svg width="19" height="14" viewBox="0 0 19 14" fill="none" xmlns="http://www.w3.org/2000/svg">
<path d="M1.35714 0H8.14285C8.50278 0 8.84798 0.142984 9.10249 0.397498C9.35701 0.652011 9.49999 0.997205 9.49999 1.35714C9.49999 1.71708 9.35701 2.06227 9.10249 2.31679C8.84798 2.5713 8.50278 2.71428 8.14285 2.71428H1.35714C0.997205 2.71428 0.652011 2.5713 0.397498 2.31679C0.142984 2.06227 0 1.71708 0 1.35714C0 0.997205 0.142984 0.652011 0.397498 0.397498C0.652011 0.142984 0.997205 0 1.35714 0ZM10.8571 10.8571H17.6428C18.0028 10.8571 18.348 11.0001 18.6025 11.2546C18.857 11.5091 19 11.8543 19 12.2143C19 12.5742 18.857 12.9194 18.6025 13.1739C18.348 13.4284 18.0028 13.5714 17.6428 13.5714H10.8571C10.4972 13.5714 10.152 13.4284 9.89749 13.1739C9.64297 12.9194 9.49999 12.5742 9.49999 12.2143C9.49999 11.8543 9.64297 11.5091 9.89749 11.2546C10.152 11.0001 10.4972 10.8571 10.8571 10.8571ZM1.35714 5.42857H17.6428C18.0028 5.42857 18.348 5.57155 18.6025 5.82606C18.857 6.08058 19 6.42577 19 6.78571C19 7.14564 18.857 7.49084 18.6025 7.74535C18.348 7.99986 18.0028 8.14285 17.6428 8.14285H1.35714C0.997205 8.14285 0.652011 7.99986 0.397498 7.74535C0.142984 7.49084 0 7.14564 0 6.78571C0 6.42577 0.142984 6.08058 0.397498 5.82606C0.652011 5.57155 0.997205 5.42857 1.35714 5.42857Z" fill="#EDEEF2"/>
</svg>
