<svg width="32" height="32" viewBox="0 0 32 32" fill="none" xmlns="http://www.w3.org/2000/svg">
<path d="M16.2943 1.84065C14.688 1.8469 13.1005 1.9744 11.7255 2.1669L12.363 4.4944C14.9818 3.95815 17.7193 4.13065 20.4693 4.50065L20.9568 2.2544C19.5193 1.95315 17.9005 1.83502 16.2943 1.84065ZM10.7693 2.85815C10.1255 3.0219 9.49425 3.21627 8.89425 3.44002C8.38175 3.63065 8.063 4.04002 7.7005 4.57314C7.338 5.10564 6.963 5.78689 6.58175 6.57502C5.813 8.15002 5.01113 10.1438 4.27675 12.1125C3.56863 14.0125 2.928 15.875 2.45113 17.3C2.8305 17 3.29925 16.8063 3.79988 16.8188C4.233 15.5438 4.75925 14.0375 5.33113 12.5063C6.058 10.5563 6.85675 8.58127 7.59425 7.06877C7.963 6.30627 8.31925 5.6619 8.63175 5.20752C8.94425 4.75064 9.2505 4.50627 9.28175 4.49377C9.8505 4.28315 10.4443 4.1019 11.0568 3.94877L10.7693 2.85815ZM21.9068 3.18502L21.663 4.2994C22.3693 4.54815 23.038 4.85002 23.663 5.20502C23.8443 5.30627 24.1943 5.68065 24.5505 6.26877C24.9005 6.85627 25.2818 7.63752 25.6568 8.54377C26.4193 10.35 27.1818 12.6438 27.863 14.8875C28.0568 15.5375 28.2505 16.1813 28.4318 16.8063C28.888 16.8688 29.313 17.0875 29.6505 17.4C29.7068 17.45 29.7568 17.5 29.8068 17.5563C29.538 16.6 29.2505 15.5875 28.938 14.5625C28.2568 12.2938 27.4818 9.97502 26.6943 8.10627C26.3068 7.16877 25.9068 6.35002 25.513 5.68689C25.113 5.02689 24.7318 4.52002 24.2255 4.22877C23.4943 3.81377 22.7193 3.46752 21.9068 3.18502ZM19.8943 12.9125L12.0005 12.9813L11.9693 12.9875C10.0755 13.1875 8.63175 14.8938 8.363 17.1125C8.74425 17.1313 9.11925 17.15 9.488 17.1625C9.7255 15.425 10.8255 14.2438 12.0818 14.1063L19.788 14.0375C20.763 14.2 21.8068 15.2 22.0755 17.0938C22.4443 17.075 22.8193 17.0625 23.2005 17.0438C22.8943 14.7 21.5443 13.1688 19.938 12.9188L19.8943 12.9125ZM28.138 17.9188C26.4818 18.0063 24.9068 18.0938 23.388 18.1625C24.3755 21.975 24.3318 25.825 24.3255 29.6125C26.1443 29.4375 28.013 29.2313 29.9505 29C29.988 28.9938 30.088 28.9563 30.2318 28.6813C30.3755 28.4125 30.513 27.9688 30.6005 27.4188C30.7818 26.3188 30.8005 24.825 30.6443 23.3438C30.4818 21.8688 30.138 20.4063 29.663 19.3813C29.4255 18.8688 29.1568 18.4688 28.8943 18.2313C28.6255 17.9938 28.4005 17.9063 28.138 17.9188ZM3.70675 17.9438C3.49363 17.95 3.308 18.0375 3.08675 18.2438C2.83363 18.475 2.56863 18.875 2.33738 19.3875C1.8755 20.4188 1.5455 21.9 1.38113 23.4C1.21675 24.9 1.21425 26.425 1.35863 27.5563C1.4305 28.1188 1.543 28.5875 1.66363 28.8688C1.78488 29.1563 1.88675 29.175 1.81425 29.1625C3.71238 29.4813 5.56113 29.7125 7.388 29.875C7.038 26.2375 7.16925 22.3875 8.13175 18.225C6.7505 18.1625 5.31238 18.0688 3.8005 17.95C3.76863 17.95 3.73738 17.9438 3.70675 17.9438ZM22.238 18.2125C17.838 18.4 13.813 18.4688 9.26925 18.2813C8.2755 22.4688 8.1505 26.3 8.5255 29.9688C13.388 30.3188 18.1255 30.1625 23.2005 29.7125C23.2068 25.8 23.2505 21.9375 22.238 18.2125Z" fill="#888A8C" fill-opacity="0.5"/>
</svg>
