<svg width="32" height="32" viewBox="0 0 32 32" fill="none" xmlns="http://www.w3.org/2000/svg">
<path d="M5.33398 7.99992C5.33398 6.53325 6.53398 5.33325 8.00065 5.33325C9.46732 5.33325 10.6673 6.53325 10.6673 7.99992C10.6673 9.46659 9.46732 10.6666 8.00065 10.6666C6.53398 10.6666 5.33398 9.46659 5.33398 7.99992ZM17.334 29.3333C16.5873 29.3333 15.974 28.7466 15.934 27.9999L15.334 15.9999L10.6673 14.6666H2.66732C1.93398 14.6666 1.33398 14.0666 1.33398 13.3333C1.33398 12.5999 1.93398 11.9999 2.66732 11.9999H9.33398L17.6807 6.03992C18.2407 5.63992 19.014 5.73325 19.4673 6.25325C19.974 6.85325 19.8673 7.74659 19.2273 8.19992L14.854 11.3333H18.6673L28.1206 5.87992C28.4072 5.70298 28.751 5.6435 29.0803 5.71389C29.4096 5.78427 29.699 5.97907 29.8882 6.25767C30.0774 6.53627 30.1517 6.87715 30.0956 7.20921C30.0396 7.54127 29.8575 7.83886 29.5873 8.03992L19.334 15.9999L18.734 27.9999C18.694 28.7466 18.0807 29.3333 17.334 29.3333Z" fill="#888A8C" fill-opacity="0.5"/>
</svg>
