<svg width="32" height="32" viewBox="0 0 32 32" fill="none" xmlns="http://www.w3.org/2000/svg">
<path fill-rule="evenodd" clip-rule="evenodd" d="M18.95 6.4C18.95 7.03652 18.6971 7.64697 18.2471 8.09706C17.797 8.54714 17.1865 8.8 16.55 8.8C15.9135 8.8 15.303 8.54714 14.8529 8.09706C14.4029 7.64697 14.15 7.03652 14.15 6.4C14.15 5.76348 14.4029 5.15303 14.8529 4.70294C15.303 4.25286 15.9135 4 16.55 4C17.1865 4 17.797 4.25286 18.2471 4.70294C18.6971 5.15303 18.95 5.76348 18.95 6.4ZM25.3333 18.6667H15.8347L18.8253 21.6173C18.9468 21.7373 19.0441 21.8794 19.112 22.036L20.89 26.136C20.9597 26.2967 20.9971 26.4695 21 26.6445C21.0029 26.8196 20.9713 26.9936 20.9069 27.1565C20.8426 27.3193 20.7468 27.4679 20.6251 27.5938C20.5033 27.7197 20.358 27.8203 20.1973 27.89C20.0367 27.9597 19.8639 27.9971 19.6888 28C19.5137 28.0029 19.3398 27.9713 19.1769 27.9069C19.014 27.8426 18.8654 27.7468 18.7395 27.6251C18.6137 27.5033 18.513 27.358 18.4433 27.1973L16.768 23.3333L12.038 18.6667H6.66667C6.31304 18.6667 5.97391 18.8071 5.72386 19.0572C5.47381 19.3072 5.33333 19.6464 5.33333 20V28H4V20C4 19.2928 4.28095 18.6145 4.78105 18.1144C5.28115 17.6143 5.95942 17.3333 6.66667 17.3333H10.6427C10.1433 15.652 10.3267 13.9147 10.7207 12.5707C10.932 11.85 11.2173 11.1933 11.5367 10.6693C11.6926 10.4083 11.8754 10.1644 12.082 9.94133C12.2707 9.742 12.5553 9.49133 12.9353 9.35C13.7633 9.04267 14.6313 9.066 15.4053 9.466C16.1473 9.85 16.67 10.5093 17.0087 11.2367C17.1487 11.5367 17.2773 11.8167 17.398 12.0787C17.6913 12.712 17.936 13.2447 18.1713 13.7127C18.502 14.37 18.7633 14.7953 19.0167 15.09C19.248 15.36 19.474 15.5213 19.762 15.634C20.0753 15.7567 20.526 15.8453 21.24 15.8667C21.4229 15.8721 21.6028 15.9152 21.7684 15.9932C21.9339 16.0713 22.0817 16.1825 22.2024 16.3201C22.3231 16.4577 22.4142 16.6187 22.47 16.793C22.5257 16.9673 22.5451 17.1512 22.5267 17.3333H25.3333C26.0406 17.3333 26.7189 17.6143 27.219 18.1144C27.719 18.6145 28 19.2928 28 20V28H26.6667V20C26.6667 19.6464 26.5262 19.3072 26.2761 19.0572C26.0261 18.8071 25.687 18.6667 25.3333 18.6667ZM16.242 15.7513L15.8987 17.3333H17.4933C17.3147 17.1767 17.1476 17.0074 16.9933 16.8267C16.7113 16.4914 16.4598 16.1315 16.242 15.7513ZM10.9907 19.8493L13.1907 21.9593L12.3593 24.766C12.326 24.88 12.2767 24.9893 12.214 25.09L10.7993 27.37C10.6128 27.6705 10.3145 27.8846 9.97015 27.9652C9.62577 28.0457 9.26349 27.9862 8.963 27.7997C8.66251 27.6131 8.44843 27.3149 8.36785 26.9705C8.28727 26.6261 8.3468 26.2638 8.53333 25.9633L9.85333 23.8367L10.748 20.818L10.9907 19.8493Z" fill="#888A8C" fill-opacity="0.5"/>
</svg>
