<svg width="16" height="16" viewBox="0 0 16 16" fill="none" xmlns="http://www.w3.org/2000/svg">
<path d="M7.99808 1.33203C8.80075 1.33203 9.57008 1.47403 10.2827 1.73336L9.48608 2.52936C8.28042 2.20152 7.00022 2.28124 5.84455 2.75613C4.68888 3.23101 3.72251 4.07445 3.0957 5.15528C2.46889 6.23611 2.21678 7.49377 2.37856 8.73269C2.54034 9.9716 3.10696 11.1223 3.99029 12.006C4.87363 12.8896 6.02418 13.4566 7.26305 13.6188C8.50191 13.781 9.75965 13.5293 10.8407 12.9029C11.9217 12.2764 12.7655 11.3103 13.2408 10.1548C13.716 8.9993 13.7962 7.71913 13.4687 6.51336L14.2647 5.71736C14.531 6.44893 14.6668 7.22153 14.6661 8.00003C14.6661 11.6827 11.6807 14.668 7.99808 14.668C4.31541 14.668 1.33008 11.6827 1.33008 8.00003C1.33008 4.31736 4.31541 1.33203 7.99808 1.33203ZM7.99808 4.00003C8.33586 3.99988 8.67231 4.04244 8.99941 4.1267V5.17136C8.35791 4.94441 7.65831 4.94229 7.01544 5.16534C6.37257 5.38839 5.82463 5.82337 5.46155 6.39888C5.09848 6.97439 4.94184 7.65624 5.01736 8.3325C5.09287 9.00877 5.39604 9.63927 5.87712 10.1205C6.35819 10.6018 6.98859 10.9052 7.66482 10.9809C8.34106 11.0567 9.02296 10.9003 9.5986 10.5374C10.1742 10.1746 10.6094 9.6268 10.8327 8.98401C11.056 8.34122 11.0541 7.64162 10.8274 7.00003H11.8721C12.0806 7.80777 12.0314 8.66051 11.7313 9.43889C11.4313 10.2173 10.8953 10.8824 10.1985 11.3411C9.50171 11.7998 8.67893 12.0291 7.84532 11.9971C7.0117 11.965 6.20898 11.6731 5.54948 11.1622C4.88998 10.6513 4.40672 9.94703 4.16733 9.14788C3.92794 8.34874 3.94439 7.49475 4.21439 6.70542C4.48439 5.91609 4.99443 5.23093 5.67312 4.74583C6.35181 4.26073 7.16518 3.99997 7.99941 4.00003H7.99808ZM9.33141 8.00003C9.33132 8.2866 9.2389 8.56552 9.06785 8.79545C8.8968 9.02537 8.65622 9.19407 8.38177 9.27654C8.10731 9.359 7.8136 9.35085 7.54414 9.25328C7.27469 9.15572 7.04384 8.97394 6.8858 8.73487C6.72777 8.49581 6.65097 8.2122 6.66677 7.92606C6.68258 7.63992 6.79016 7.36649 6.97356 7.14629C7.15696 6.92609 7.40643 6.77084 7.68499 6.70355C7.96355 6.63626 8.25638 6.6605 8.52008 6.7727L9.66675 5.62603L9.66608 3.50003C9.66619 3.36747 9.71895 3.24038 9.81275 3.1467L11.4794 1.48003C11.5493 1.41019 11.6384 1.36264 11.7353 1.34339C11.8323 1.32413 11.9327 1.33403 12.024 1.37184C12.1153 1.40965 12.1934 1.47367 12.2483 1.55581C12.3033 1.63795 12.3327 1.73454 12.3327 1.83336V3.6667H14.1661C14.2649 3.66679 14.3615 3.69616 14.4436 3.7511C14.5258 3.80605 14.5898 3.88411 14.6276 3.97542C14.6654 4.06672 14.6753 4.16719 14.6561 4.26412C14.6368 4.36105 14.5893 4.45011 14.5194 4.52003L12.8527 6.1867C12.7591 6.28049 12.632 6.33325 12.4994 6.33336H10.3727L9.22608 7.48003C9.29408 7.64003 9.33141 7.81536 9.33141 8.00003Z" fill="white"/>
</svg>
