<svg width="24" height="25" viewBox="0 0 24 25" fill="none" xmlns="http://www.w3.org/2000/svg">
<path d="M22 12C22 6.48 17.52 2 12 2C6.48 2 2 6.48 2 12C2 17.52 6.48 22 12 22" stroke="#999999" stroke-width="1.5" stroke-linecap="round" stroke-linejoin="round"/>
<path d="M8.00001 3H9.00001C7.05001 8.84 7.05001 15.16 9.00001 21H8.00001" stroke="#999999" stroke-width="1.5" stroke-linecap="round" stroke-linejoin="round"/>
<path d="M15 3C15.97 5.92 16.46 8.96 16.46 12" stroke="#999999" stroke-width="1.5" stroke-linecap="round" stroke-linejoin="round"/>
<path d="M3 16V15C5.92 15.97 8.96 16.46 12 16.46" stroke="#999999" stroke-width="1.5" stroke-linecap="round" stroke-linejoin="round"/>
<path d="M3 8.99998C8.84 7.04998 15.16 7.04998 21 8.99998" stroke="#999999" stroke-width="1.5" stroke-linecap="round" stroke-linejoin="round"/>
<path d="M18 17.9998C19.2868 17.9998 20.33 16.9566 20.33 15.6698C20.33 14.383 19.2868 13.3398 18 13.3398C16.7132 13.3398 15.67 14.383 15.67 15.6698C15.67 16.9566 16.7132 17.9998 18 17.9998Z" stroke="#999999" stroke-width="1.5" stroke-linecap="round" stroke-linejoin="round"/>
<path d="M22 23.6599C22 21.8599 20.21 20.3999 18 20.3999C15.79 20.3999 14 21.8599 14 23.6599" stroke="#999999" stroke-width="1.5" stroke-linecap="round" stroke-linejoin="round"/>
</svg>
