<svg width="32" height="32" viewBox="0 0 32 32" fill="none" xmlns="http://www.w3.org/2000/svg">
<path fill-rule="evenodd" clip-rule="evenodd" d="M23.6007 24.1333C23.7421 24.0272 23.9199 23.9817 24.0949 24.0067C24.27 24.0317 24.4279 24.1252 24.534 24.2667L26.334 26.6667H27.334C27.5108 26.6667 27.6804 26.7369 27.8054 26.8619C27.9304 26.987 28.0007 27.1565 28.0007 27.3333C28.0007 27.5101 27.9304 27.6797 27.8054 27.8047C27.6804 27.9298 27.5108 28 27.334 28H24.0007C23.8238 28 23.6543 27.9298 23.5292 27.8047C23.4042 27.6797 23.334 27.5101 23.334 27.3333C23.334 27.1565 23.4042 26.987 23.5292 26.8619C23.6543 26.7369 23.8238 26.6667 24.0007 26.6667H24.6673L23.4673 25.0667C23.3612 24.9252 23.3157 24.7474 23.3407 24.5724C23.3657 24.3974 23.4592 24.2394 23.6007 24.1333Z" fill="#55585B"/>
<path fill-rule="evenodd" clip-rule="evenodd" d="M22 25.3333C23.0365 25.3331 24.0553 25.0643 24.9571 24.5533C25.8589 24.0422 26.6129 23.3063 27.1457 22.4171C27.6785 21.528 27.9718 20.516 27.9971 19.4798C28.0224 18.4435 27.7788 17.4184 27.2901 16.5043C26.8014 15.5902 26.0842 14.8183 25.2085 14.2639C24.3327 13.7094 23.3282 13.3913 22.2929 13.3405C21.2576 13.2897 20.2268 13.5079 19.301 13.974C18.3752 14.4401 17.5859 15.1381 17.01 15.9999H21.718C22.5939 15.9994 23.4403 16.3168 24.0998 16.8934C24.7592 17.4699 25.187 18.2662 25.3035 19.1344C25.42 20.0025 25.2174 20.8834 24.7332 21.6134C24.2491 22.3434 23.5164 22.8728 22.6713 23.1033L18.5367 24.2333C19.5488 24.9507 20.7593 25.3352 22 25.3333ZM17.384 23.1666L22.3193 21.8166C22.8525 21.6709 23.3146 21.3368 23.62 20.8761C23.9254 20.4155 24.0532 19.8597 23.9797 19.3119C23.9062 18.7641 23.6365 18.2616 23.2205 17.8977C22.8046 17.5338 22.2707 17.3333 21.718 17.3333H16.3413C16.1147 17.9757 15.9992 18.652 16 19.3333C16 20.7906 16.52 22.1266 17.384 23.1666Z" fill="#55585B"/>
<path fill-rule="evenodd" clip-rule="evenodd" d="M20.3793 25.1119C19.7193 24.9269 19.0959 24.6297 18.5367 24.2333L22.6713 23.1033C23.5164 22.8728 24.2491 22.3434 24.7332 21.6134C25.2174 20.8834 25.42 20.0025 25.3035 19.1344C25.187 18.2662 24.7592 17.4699 24.0998 16.8934C23.4403 16.3168 22.5939 15.9994 21.718 15.9999H17.01C17.3468 15.4969 17.7574 15.0474 18.228 14.6666C19.0286 14.02 19.9821 13.5901 20.9969 13.4184C22.0116 13.2467 23.0534 13.3389 24.0222 13.6862C24.991 14.0334 25.8542 14.624 26.5289 15.4012C27.2035 16.1783 27.6669 17.116 27.8745 18.124C28.0821 19.132 28.027 20.1764 27.7144 21.157C27.4017 22.1375 26.8422 23.0211 26.0894 23.7229C25.3367 24.4247 24.4161 24.9211 23.4161 25.1643C22.4161 25.4076 21.3703 25.3895 20.3793 25.1119ZM26.6647 19.4719C26.6837 18.8358 26.5724 18.2026 26.3377 17.6111C26.1029 17.0196 25.7497 16.4824 25.2997 16.0324C24.8497 15.5825 24.3124 15.2293 23.7209 14.9947C23.1293 14.76 22.4961 14.6488 21.86 14.6679C23.1228 14.7043 24.3238 15.2222 25.2171 16.1155C26.1104 17.0088 26.6283 18.2092 26.6647 19.4719ZM17.384 23.1666L22.3193 21.8173C22.853 21.6721 23.3159 21.338 23.6217 20.8772C23.9276 20.4164 24.0557 19.8601 23.9822 19.3119C23.9086 18.7637 23.6385 18.2609 23.2221 17.897C22.8056 17.533 22.2711 17.3327 21.718 17.3333H16.3413C16.1147 17.9757 15.9992 18.652 16 19.3333C16 20.7906 16.52 22.1266 17.384 23.1666ZM17.38 18.6666C17.3487 18.8839 17.3327 19.1066 17.3327 19.3333C17.3327 20.1706 17.5527 20.9539 17.9373 21.6326L21.9673 20.5306C22.1891 20.4702 22.3814 20.3314 22.5085 20.1399C22.6356 19.9484 22.6888 19.7173 22.6584 19.4895C22.6279 19.2617 22.5158 19.0527 22.3428 18.9013C22.1698 18.75 21.9478 18.6666 21.718 18.6666H17.38ZM9.06667 24.1333C9.20812 24.2393 9.30163 24.3973 9.32664 24.5723C9.35164 24.7473 9.30609 24.9251 9.2 25.0666L7.2 27.7333C7.09392 27.8747 6.93598 27.9682 6.76095 27.9932C6.58592 28.0182 6.40812 27.9727 6.26667 27.8666C6.12522 27.7605 6.03171 27.6026 6.0067 27.4275C5.9817 27.2525 6.02725 27.0747 6.13334 26.9333L8.13334 24.2666C8.23942 24.1251 8.39735 24.0316 8.57239 24.0066C8.74742 23.9816 8.92522 24.0272 9.06667 24.1333Z" fill="#55585B"/>
<path d="M4.66602 27.3333C4.66602 27.1565 4.73625 26.9869 4.86128 26.8619C4.9863 26.7369 5.15587 26.6666 5.33268 26.6666H8.66602C8.84283 26.6666 9.0124 26.7369 9.13742 26.8619C9.26244 26.9869 9.33268 27.1565 9.33268 27.3333C9.33268 27.5101 9.26244 27.6797 9.13742 27.8047C9.0124 27.9297 8.84283 28 8.66602 28H5.33268C5.15587 28 4.9863 27.9297 4.86128 27.8047C4.73625 27.6797 4.66602 27.5101 4.66602 27.3333Z" fill="#55585B"/>
<path fill-rule="evenodd" clip-rule="evenodd" d="M5.33268 26.6666C5.15587 26.6666 4.9863 26.7368 4.86128 26.8618C4.73625 26.9869 4.66602 27.1564 4.66602 27.3333C4.66602 27.5101 4.73625 27.6796 4.86128 27.8047C4.9863 27.9297 5.15587 27.9999 5.33268 27.9999H8.66602C8.84283 27.9999 9.0124 27.9297 9.13742 27.8047C9.26244 27.6796 9.33268 27.5101 9.33268 27.3333C9.33268 27.1564 9.26244 26.9869 9.13742 26.8618C9.0124 26.7368 8.84283 26.6666 8.66602 26.6666H5.33268ZM5.33268 21.3466C5.33268 20.2822 5.75551 19.2614 6.50816 18.5087C7.26081 17.7561 8.28161 17.3333 9.34602 17.3333H21.7194C22.2695 17.3328 22.8013 17.5314 23.2166 17.8923C23.6319 18.2532 23.9026 18.752 23.979 19.2969C24.0553 19.8417 23.9321 20.3958 23.632 20.8569C23.3318 21.3181 22.8751 21.6551 22.346 21.8059L10.448 25.2053C7.88468 25.9373 5.33268 24.0119 5.33268 21.3466ZM10.4873 21.9999C10.3406 22.2541 10.1141 22.4527 9.84289 22.565C9.57173 22.6774 9.27109 22.6971 8.98759 22.6211C8.70409 22.5451 8.45357 22.3777 8.27489 22.1449C8.09622 21.9121 7.99936 21.6268 7.99935 21.3333C7.99936 21.0398 8.09622 20.7545 8.27489 20.5216C8.45357 20.2888 8.70409 20.1214 8.98759 20.0454C9.27109 19.9694 9.57173 19.9891 9.84289 20.1015C10.1141 20.2138 10.3406 20.4124 10.4873 20.6666H12.666C12.8428 20.6666 13.0124 20.7368 13.1374 20.8618C13.2624 20.9869 13.3327 21.1564 13.3327 21.3333C13.3327 21.5101 13.2624 21.6796 13.1374 21.8047C13.0124 21.9297 12.8428 21.9999 12.666 21.9999H10.4873Z" fill="#55585B"/>
<path fill-rule="evenodd" clip-rule="evenodd" d="M6.66732 21.3399V21.3466C6.66732 23.1266 8.37132 24.4119 10.0833 23.9233L12.1473 23.3333H11.0973C10.7128 23.6722 10.2388 23.8931 9.73204 23.9696C9.22524 24.0461 8.70714 23.975 8.23975 23.7646C7.77235 23.5543 7.37546 23.2138 7.09659 22.7838C6.81772 22.3537 6.66868 21.8524 6.66732 21.3399ZM9.34065 18.6666H21.7207C21.9492 18.6662 22.1702 18.7486 22.3428 18.8985C22.5154 19.0484 22.6279 19.2556 22.6596 19.482C22.6913 19.7084 22.64 19.9386 22.5152 20.1301C22.3904 20.3216 22.2005 20.4615 21.9806 20.5239L14.0327 22.7946C14.3259 22.5206 14.5299 22.1647 14.6182 21.7732C14.7065 21.3817 14.6749 20.9727 14.5277 20.5994C14.3804 20.226 14.1242 19.9056 13.7925 19.6798C13.4607 19.454 13.0686 19.3333 12.6673 19.3333H11.0973C10.6125 18.9045 9.98785 18.6675 9.34065 18.6666ZM10.4887 21.9999C10.3419 22.2541 10.1154 22.4527 9.8442 22.565C9.57303 22.6774 9.27239 22.6971 8.98889 22.6211C8.70539 22.5451 8.45487 22.3777 8.2762 22.1449C8.09752 21.9121 8.00066 21.6268 8.00065 21.3333C8.00066 21.0398 8.09752 20.7545 8.2762 20.5216C8.45487 20.2888 8.70539 20.1214 8.98889 20.0454C9.27239 19.9694 9.57303 19.9891 9.8442 20.1015C10.1154 20.2138 10.3419 20.4124 10.4887 20.6666H12.6673C12.8441 20.6666 13.0137 20.7368 13.1387 20.8618C13.2637 20.9869 13.334 21.1564 13.334 21.3333C13.334 21.5101 13.2637 21.6796 13.1387 21.8047C13.0137 21.9297 12.8441 21.9999 12.6673 21.9999H10.4887ZM9.34732 17.3333C8.28292 17.3333 7.26211 17.7561 6.50946 18.5087C5.75682 19.2614 5.33398 20.2822 5.33398 21.3466C5.33398 24.0126 7.88598 25.9373 10.4493 25.2053L22.3467 21.8053C22.8751 21.654 23.3312 21.3169 23.6308 20.856C23.9305 20.3952 24.0535 19.8416 23.9773 19.2972C23.9011 18.7528 23.6308 18.2542 23.2161 17.8934C22.8014 17.5325 22.2704 17.3336 21.7207 17.3333H9.34732Z" fill="#55585B"/>
<path fill-rule="evenodd" clip-rule="evenodd" d="M7.13552 12.0306C7.3042 11.9781 7.48685 11.9946 7.64336 12.0766C7.79986 12.1586 7.91741 12.2994 7.97019 12.468L9.63685 17.8013C9.68298 17.9681 9.66248 18.1462 9.57967 18.2981C9.49687 18.45 9.35824 18.5638 9.19309 18.6154C9.02795 18.667 8.84921 18.6524 8.69466 18.5746C8.5401 18.4968 8.42184 18.362 8.36485 18.1986L6.69819 12.8653C6.6456 12.6966 6.66212 12.514 6.74412 12.3575C6.82612 12.201 6.9669 12.0834 7.13552 12.0306ZM23.5629 4.03998C23.6451 4.07002 23.7207 4.11599 23.7852 4.17524C23.8497 4.2345 23.9018 4.30588 23.9387 4.38531C23.9756 4.46475 23.9965 4.55067 24.0002 4.63818C24.0039 4.72568 23.9903 4.81306 23.9602 4.89531L23.2935 6.72064C23.2611 6.80936 23.2103 6.89018 23.1443 6.95776C23.0783 7.02534 22.9988 7.07813 22.9109 7.11264L20.5189 8.04931L22.6262 13.7693C22.6586 13.8519 22.6743 13.9401 22.6722 14.0288C22.6701 14.1175 22.6503 14.2049 22.614 14.2859C22.5777 14.3668 22.5256 14.4397 22.4608 14.5003C22.3959 14.5608 22.3197 14.6079 22.2364 14.6386C22.1532 14.6693 22.0646 14.6831 21.976 14.6791C21.8874 14.6751 21.8004 14.6535 21.7202 14.6156C21.64 14.5776 21.5683 14.5239 21.5091 14.4578C21.4499 14.3918 21.4045 14.3145 21.3755 14.2306L19.0422 7.89731C18.9818 7.73364 18.988 7.55283 19.0594 7.39367C19.1308 7.23451 19.2618 7.10968 19.4242 7.04598L22.1442 5.98064L22.7082 4.43798C22.7689 4.27198 22.893 4.13689 23.0533 4.06238C23.2135 3.98787 23.3968 3.97939 23.5629 4.03998Z" fill="#55585B"/>
<path d="M4 11.4333C3.99989 11.1677 4.05544 10.9051 4.16308 10.6623C4.27071 10.4196 4.42803 10.2021 4.6249 10.0239C4.82177 9.84567 5.0538 9.71071 5.30604 9.6277C5.55827 9.54468 5.82511 9.51547 6.08933 9.54193L9.09067 9.84193C9.53744 9.88656 9.94997 10.1012 10.2429 10.4415C10.5359 10.7817 10.6868 11.2216 10.6646 11.67C10.6423 12.1185 10.4485 12.5412 10.1233 12.8508C9.7981 13.1604 9.36633 13.3331 8.91733 13.3333H5.9C5.39609 13.3333 4.91282 13.1331 4.5565 12.7768C4.20018 12.4204 4 11.9372 4 11.4333Z" fill="#55585B"/>
<path fill-rule="evenodd" clip-rule="evenodd" d="M8.95938 11.1693L5.95738 10.8693C5.88108 10.8619 5.80408 10.87 5.73102 10.8932C5.65796 10.9164 5.59036 10.9542 5.53232 11.0043C5.47429 11.0544 5.42701 11.1157 5.39336 11.1846C5.35971 11.2534 5.34038 11.3284 5.33654 11.405C5.3327 11.4815 5.34444 11.5581 5.37104 11.63C5.39763 11.7018 5.43854 11.7676 5.49128 11.8232C5.54402 11.8788 5.6075 11.9232 5.67788 11.9536C5.74825 11.984 5.82406 11.9998 5.90071 12H8.91738C9.0234 11.9988 9.12497 11.9572 9.20139 11.8837C9.27781 11.8102 9.32334 11.7103 9.32869 11.6044C9.33405 11.4985 9.29883 11.3945 9.23021 11.3137C9.16159 11.2329 9.06474 11.1812 8.95938 11.1693ZM6.09004 9.54266C5.83392 9.51718 5.57529 9.544 5.32985 9.6215C5.08441 9.69901 4.85727 9.82557 4.66222 9.99351C4.46717 10.1615 4.30828 10.3673 4.19519 10.5985C4.0821 10.8297 4.01716 11.0815 4.00432 11.3385C3.99148 11.5956 4.031 11.8526 4.1205 12.0939C4.20999 12.3353 4.34758 12.5559 4.52492 12.7424C4.70226 12.929 4.91566 13.0775 5.15215 13.1791C5.38865 13.2807 5.64332 13.3332 5.90071 13.3333H8.91738C9.36532 13.3317 9.79558 13.1583 10.1195 12.849C10.4435 12.5397 10.6365 12.1178 10.6588 11.6705C10.6811 11.2231 10.531 10.7842 10.2394 10.4441C9.94782 10.1041 9.53693 9.88883 9.09138 9.84266L6.09004 9.54266Z" fill="#55585B"/>
</svg>
