<svg width="295" height="144" viewBox="0 0 295 144" fill="none" xmlns="http://www.w3.org/2000/svg">
<rect width="24" height="24" rx="2" fill="#F9545E"/>
<rect x="39" width="23" height="24" rx="2" fill="#F9545E"/>
<rect x="77" width="24" height="24" rx="2" fill="#F9545E"/>
<rect x="116" width="24" height="24" rx="2" fill="#F9545E"/>
<rect x="155" width="24" height="24" rx="2" fill="#23262B"/>
<rect x="194" width="24" height="24" rx="2" fill="#23262B"/>
<rect x="233" width="23" height="24" rx="2" fill="#23262B"/>
<rect x="271.5" y="0.5" width="23" height="23" rx="1.5" stroke="#EEEEEE" stroke-opacity="0.1"/>
<rect x="0.5" y="40.5" width="23" height="23" rx="1.5" stroke="#EEEEEE" stroke-opacity="0.1"/>
<rect x="39.5" y="40.5" width="22" height="23" rx="1.5" stroke="#EEEEEE" stroke-opacity="0.1"/>
<rect x="77.5" y="40.5" width="23" height="23" rx="1.5" stroke="#EEEEEE" stroke-opacity="0.1"/>
<rect x="116.5" y="40.5" width="23" height="23" rx="1.5" stroke="#EEEEEE" stroke-opacity="0.1"/>
<rect x="155.5" y="40.5" width="23" height="23" rx="1.5" stroke="#EEEEEE" stroke-opacity="0.1"/>
<rect x="194.5" y="40.5" width="23" height="23" rx="1.5" stroke="#EEEEEE" stroke-opacity="0.1"/>
<rect x="233.5" y="40.5" width="22" height="23" rx="1.5" stroke="#EEEEEE" stroke-opacity="0.1"/>
<rect x="271.5" y="40.5" width="23" height="23" rx="1.5" stroke="#EEEEEE" stroke-opacity="0.1"/>
<rect x="0.5" y="80.5" width="23" height="23" rx="1.5" stroke="#EEEEEE" stroke-opacity="0.1"/>
<rect x="39.5" y="80.5" width="22" height="23" rx="1.5" stroke="#EEEEEE" stroke-opacity="0.1"/>
<rect x="77.5" y="80.5" width="23" height="23" rx="1.5" stroke="#EEEEEE" stroke-opacity="0.1"/>
<rect x="116.5" y="80.5" width="23" height="23" rx="1.5" stroke="#EEEEEE" stroke-opacity="0.1"/>
<rect x="155.5" y="80.5" width="23" height="23" rx="1.5" stroke="#EEEEEE" stroke-opacity="0.1"/>
<rect x="194.5" y="80.5" width="23" height="23" rx="1.5" stroke="#EEEEEE" stroke-opacity="0.1"/>
<rect x="233.5" y="80.5" width="22" height="23" rx="1.5" stroke="#EEEEEE" stroke-opacity="0.1"/>
<rect x="271.5" y="80.5" width="23" height="23" rx="1.5" stroke="#EEEEEE" stroke-opacity="0.1"/>
<rect x="0.5" y="120.5" width="23" height="23" rx="1.5" stroke="#EEEEEE" stroke-opacity="0.1"/>
<rect x="39.5" y="120.5" width="22" height="23" rx="1.5" stroke="#EEEEEE" stroke-opacity="0.1"/>
<rect x="77.5" y="120.5" width="23" height="23" rx="1.5" stroke="#EEEEEE" stroke-opacity="0.1"/>
<rect x="116.5" y="120.5" width="23" height="23" rx="1.5" stroke="#EEEEEE" stroke-opacity="0.1"/>
<rect x="155.5" y="120.5" width="23" height="23" rx="1.5" stroke="#EEEEEE" stroke-opacity="0.1"/>
<rect x="194.5" y="120.5" width="23" height="23" rx="1.5" stroke="#EEEEEE" stroke-opacity="0.1"/>
<rect x="233.5" y="120.5" width="22" height="23" rx="1.5" stroke="#EEEEEE" stroke-opacity="0.1"/>
</svg>
