<svg width="80" height="80" viewBox="0 0 80 80" fill="none" xmlns="http://www.w3.org/2000/svg">
<path d="M40 80C34.6016 80 29.3594 78.9453 24.4297 76.8594C19.6641 74.8438 15.3906 71.9531 11.7188 68.2812C8.04688 64.6094 5.15625 60.3359 3.14062 55.5703C1.05469 50.6406 0 45.3984 0 40C0 38.4453 1.25781 37.1875 2.8125 37.1875C4.36719 37.1875 5.625 38.4453 5.625 40C5.625 44.6406 6.53125 49.1406 8.32812 53.3828C10.0625 57.4766 12.5391 61.1562 15.6953 64.3125C18.8516 67.4688 22.5312 69.9531 26.625 71.6797C30.8594 73.4688 35.3594 74.375 40 74.375C44.6406 74.375 49.1406 73.4688 53.3828 71.6719C57.4766 69.9375 61.1562 67.4609 64.3125 64.3047C67.4688 61.1484 69.9531 57.4688 71.6797 53.375C73.4688 49.1406 74.375 44.6406 74.375 40C74.375 35.3594 73.4688 30.8594 71.6719 26.6172C69.9434 22.5333 67.4418 18.822 64.3047 15.6875C61.1737 12.5462 57.4615 10.044 53.375 8.32031C49.1406 6.53125 44.6406 5.625 40 5.625C38.4453 5.625 37.1875 4.36719 37.1875 2.8125C37.1875 1.25781 38.4453 0 40 0C45.3984 0 50.6406 1.05469 55.5703 3.14062C60.3359 5.15625 64.6094 8.04688 68.2812 11.7188C71.9531 15.3906 74.8359 19.6719 76.8516 24.4297C78.9375 29.3594 79.9922 34.6016 79.9922 40C79.9922 45.3984 78.9375 50.6406 76.8516 55.5703C74.8438 60.3359 71.9531 64.6094 68.2812 68.2812C64.6094 71.9531 60.3281 74.8359 55.5703 76.8516C50.6406 78.9453 45.3984 80 40 80Z" fill="#23262B"/>
</svg>
