<svg width="14" height="14" viewBox="0 0 14 14" fill="none" xmlns="http://www.w3.org/2000/svg">
<path d="M7.0013 6.70842C6.61453 6.70842 6.2436 6.55477 5.9701 6.28128C5.69661 6.00779 5.54297 5.63686 5.54297 5.25008C5.54297 4.86331 5.69661 4.49237 5.9701 4.21888C6.2436 3.94539 6.61453 3.79175 7.0013 3.79175C7.38808 3.79175 7.75901 3.94539 8.0325 4.21888C8.30599 4.49237 8.45964 4.86331 8.45964 5.25008C8.45964 5.44159 8.42192 5.63123 8.34863 5.80816C8.27534 5.9851 8.16792 6.14586 8.0325 6.28128C7.89708 6.4167 7.73632 6.52412 7.55938 6.59741C7.38245 6.67069 7.19281 6.70842 7.0013 6.70842ZM7.0013 1.16675C5.91833 1.16675 4.87972 1.59696 4.11395 2.36273C3.34818 3.1285 2.91797 4.16711 2.91797 5.25008C2.91797 8.31258 7.0013 12.8334 7.0013 12.8334C7.0013 12.8334 11.0846 8.31258 11.0846 5.25008C11.0846 4.16711 10.6544 3.1285 9.88866 2.36273C9.12288 1.59696 8.08427 1.16675 7.0013 1.16675Z" fill="#F9545E"/>
</svg>
