<svg width="43" height="43" viewBox="0 0 43 43" fill="none" xmlns="http://www.w3.org/2000/svg">
<path d="M30.8109 7.28314C30.8109 8.14559 30.4683 8.97272 29.8584 9.58256C29.2486 10.1924 28.4215 10.535 27.559 10.535C26.6966 10.535 25.8694 10.1924 25.2596 9.58256C24.6498 8.97272 24.3072 8.14559 24.3072 7.28314C24.3072 6.42069 24.6498 5.59357 25.2596 4.98372C25.8694 4.37388 26.6966 4.03127 27.559 4.03127C28.4215 4.03127 29.2486 4.37388 29.8584 4.98372C30.4683 5.59357 30.8109 6.42069 30.8109 7.28314ZM9.89141 38.5423C10.7648 37.754 19.0988 26.3017 18.9958 26.032C18.9241 25.8448 14.7746 23.8104 14.7388 23.8668L7.54074 35.1014C5.10766 38.898 8.76983 39.5546 9.89141 38.5423ZM20.5366 34.1304L28.3187 24.4831C28.978 23.6643 27.8206 22.5732 26.983 22.1791C24.7775 21.1399 18.5308 18.7964 17.9691 18.7964C17.0294 18.7964 16.0512 19.8158 16.0512 20.7941C16.0512 22.0303 16.6594 22.5248 19.7088 23.7701C21.2479 24.398 22.5433 24.9794 22.5074 25.0368L17.5597 33.0392C16.7392 34.366 19.5109 35.4024 20.5366 34.1304ZM13.1451 19.4727C13.6181 19.0409 15.0442 17.6847 16.3127 16.4574C17.6117 15.2014 18.7431 14.2733 18.9017 14.3342C19.0567 14.3934 21.2622 15.6269 23.8037 17.0755C28.5543 19.7836 29.6642 20.2037 30.6622 19.6689C30.9211 19.531 32.2908 17.9668 33.7062 16.1931C35.8786 13.4725 36.28 12.8534 36.28 12.2246C36.28 11.2517 35.6511 10.6183 34.6854 10.6183C34.0744 10.6183 33.5566 10.948 31.618 12.5712C30.3352 13.6453 29.1661 14.5752 29.0201 14.6379C28.7397 14.7571 28.5113 14.6352 23.6899 11.791C20.1845 9.72339 19.252 9.40179 17.7774 9.75564C16.5313 10.0548 15.7367 10.8369 12.415 15.0303C11.3301 16.4905 9.3781 18.0403 10.4011 19.9189C11.2862 20.6893 11.9214 20.5863 13.1451 19.4727Z" stroke="#F9545E" stroke-width="0.754902" stroke-linecap="round" stroke-linejoin="round"/>
</svg>
