<svg width="24" height="24" viewBox="0 0 24 24" fill="none" xmlns="http://www.w3.org/2000/svg">
<path d="M17.1968 4.065C17.1968 4.54637 17.0056 5.00802 16.6652 5.3484C16.3248 5.68878 15.8632 5.88 15.3818 5.88C14.9004 5.88 14.4388 5.68878 14.0984 5.3484C13.758 5.00802 13.5668 4.54637 13.5668 4.065C13.5668 3.58363 13.758 3.12198 14.0984 2.7816C14.4388 2.44122 14.9004 2.25 15.3818 2.25C15.8632 2.25 16.3248 2.44122 16.6652 2.7816C17.0056 3.12198 17.1968 3.58363 17.1968 4.065ZM5.52079 21.512C6.00829 21.072 10.6598 14.68 10.6023 14.5295C10.5623 14.425 8.24629 13.2895 8.22629 13.321L4.20879 19.5915C2.85079 21.7105 4.89479 22.077 5.52079 21.512ZM11.4623 19.0495L15.8058 13.665C16.1738 13.208 15.5278 12.599 15.0603 12.379C13.8293 11.799 10.3428 10.491 10.0293 10.491C9.50479 10.491 8.95879 11.06 8.95879 11.606C8.95879 12.296 9.29829 12.572 11.0003 13.267C11.8593 13.6175 12.5823 13.942 12.5623 13.974L9.80079 18.4405C9.34279 19.181 10.8898 19.7595 11.4623 19.0495ZM7.33679 10.8685C7.60079 10.6275 8.39679 9.8705 9.10479 9.1855C9.82979 8.4845 10.4613 7.9665 10.5498 8.0005C10.6363 8.0335 11.8673 8.722 13.2858 9.5305C15.9373 11.042 16.5568 11.2765 17.1138 10.978C17.2583 10.901 18.0228 10.028 18.8128 9.038C20.0253 7.5195 20.2493 7.174 20.2493 6.823C20.2493 6.28 19.8983 5.9265 19.3593 5.9265C19.0183 5.9265 18.7293 6.1105 17.6473 7.0165C16.9313 7.616 16.2788 8.135 16.1973 8.17C16.0408 8.2365 15.9133 8.1685 13.2223 6.581C11.2658 5.427 10.7453 5.2475 9.92229 5.445C9.22679 5.612 8.78329 6.0485 6.92929 8.389C6.32379 9.204 5.23429 10.069 5.80529 11.1175C6.29929 11.5475 6.65379 11.49 7.33679 10.8685Z" stroke="#999999" stroke-width="0.754902" stroke-linecap="round" stroke-linejoin="round"/>
</svg>
