<svg width="32" height="32" viewBox="0 0 32 32" fill="none" xmlns="http://www.w3.org/2000/svg">
<path d="M16 26.6666C13.776 26.6666 11.8867 25.8893 10.332 24.3346C8.77733 22.7791 8 20.8898 8 18.6666C8 16.8338 8.55244 15.2009 9.65733 13.768C10.7631 12.3342 12.2049 11.3884 13.9827 10.9306C13.3516 10.8044 12.7893 10.5604 12.296 10.1986C11.8027 9.83686 11.3982 9.38531 11.0827 8.84397C10.7662 8.30175 10.5284 7.71686 10.3693 7.08931C10.2102 6.46175 10.1404 5.81064 10.16 5.13597C10.9173 5.1102 11.6387 5.21242 12.324 5.44264C13.0093 5.67375 13.6258 6.01686 14.1733 6.47197C14.72 6.9262 15.1671 7.45509 15.5147 8.05864C15.8622 8.6622 16.0636 9.33775 16.1187 10.0853C16.3907 9.4302 16.7196 8.80975 17.1053 8.22397C17.4902 7.63909 17.9382 7.09108 18.4493 6.57997C18.5738 6.45553 18.7311 6.39331 18.9213 6.39331C19.1116 6.39331 19.2689 6.45553 19.3933 6.57997C19.5178 6.70442 19.58 6.86131 19.58 7.05064C19.58 7.24086 19.5178 7.3982 19.3933 7.52264C18.9222 7.99464 18.5062 8.50397 18.1453 9.05064C17.7844 9.59642 17.4893 10.1769 17.26 10.792C19.2156 11.0898 20.8276 11.9826 22.096 13.4706C23.3653 14.9586 24 16.6906 24 18.6666C24 20.8906 23.2227 22.78 21.668 24.3346C20.1124 25.8893 18.2231 26.6666 16 26.6666Z" fill="#55585B"/>
</svg>
